SCREENS;
 
http://baypic.net/img-51a05ae951ef6.html 
 
http://baypic.net/img-51a05aec3721a.html 
 
http://baypic.net/img-51a05aee94f9e.html 

Format : MPEG-4
Format profile : Base Media / Version 2
Codec ID : mp42
File size : 1.19 GiB
Duration : 27mn 32s
Overall bit rate mode : Variable
Overall bit rate : 6 197 Kbps
Encoded date : UTC 2013-05-24 14:44:30
Tagged date : UTC 2013-05-24 14:44:30

Video
ID : 1
Format : AVC
Format/Info : Advanced Video Codec
Format profile : High@L4.0
Format settings, CABAC : Yes
Format settings, ReFrames : 3 frames
Codec ID : avc1
Codec ID/Info : Advanced Video Coding
Duration : 27mn 32s
Bit rate mode : Variable
Bit rate : 6 003 Kbps
Width : 1 920 pixels
Height : 1 080 pixels
Display aspect ratio : 16:9
Frame rate mode : Constant
Frame rate : 29.970 fps
Standard : NTSC
Color space : YUV
Chroma subsampling : 4:2:0
Bit depth : 8 bits
Scan type : Progressive
Bits/(Pixel*Frame) : 0.097
Stream size : 1.15 GiB (97%)
Language : English
Encoded date : UTC 2013-05-24 14:44:30
Tagged date : UTC 2013-05-24 14:44:30
Color primaries : BT.709
Transfer characteristics : BT.709
Matrix coefficients : BT.709

Audio
ID : 2
Format : AAC
Format/Info : Advanced Audio Codec
Format profile : LC
Codec ID : 40
Duration : 27mn 32s
Bit rate mode : Variable
Bit rate : 192 Kbps
Maximum bit rate : 518 Kbps
Channel(s) : 2 channels
Channel positions : Front: L R
Sampling rate : 48.0 KHz
Compression mode : Lossy
Stream size : 37.3 MiB (3%)
Language : English
